<svg version="1.1" id="Layer_1" xmlns="http://www.w3.org/2000/svg" xmlns:xlink="http://www.w3.org/1999/xlink" x="0px" y="0px"
	 width="100%" viewBox="0 0 512 512" enable-background="new 0 0 512 512" xml:space="preserve">
<path fill="#000000" opacity="1.000000" stroke="none" 
	d="
M67.000000,513.000000 
	C45.023151,513.000000 23.046305,513.000000 1.000000,513.000000 
	C1.000000,396.645782 1.000000,280.291534 1.342286,163.290680 
	C2.119391,163.110870 2.691847,163.507980 2.968829,164.054764 
	C9.299182,176.551224 19.793106,181.950104 33.442329,182.000458 
	C40.262321,182.025620 47.082348,182.042435 53.946091,182.482269 
	C55.630634,188.065063 56.550663,193.613632 59.060768,198.312851 
	C64.458786,208.418564 74.301071,211.664505 84.966766,213.508026 
	C85.131020,221.395020 88.104866,227.733856 92.839516,233.314224 
	C99.852486,241.579926 109.503510,243.691788 119.588867,243.916809 
	C134.228897,244.243469 148.881927,243.942535 163.528885,244.016083 
	C178.721069,244.092377 191.667328,249.997757 202.571014,260.197571 
	C211.803955,268.834442 220.296600,278.265869 229.582977,286.840881 
	C233.286011,290.260254 237.968063,293.769165 242.691071,294.661407 
	C249.574158,295.961761 256.896790,294.935486 264.347046,295.166016 
	C263.564789,296.666290 262.539154,297.975037 261.359375,299.125763 
	C248.415833,311.750580 235.306885,324.209198 222.511734,336.982239 
	C167.942734,391.456940 113.463844,446.021851 58.958694,500.560455 
	C57.831577,501.688232 56.784504,502.896027 55.217659,504.587219 
	C58.634979,506.616028 61.585480,508.241486 64.385193,510.094757 
	C65.436974,510.790955 66.138687,512.016052 67.000000,513.000000 
z"/>
<path fill="#000000" opacity="1.000000" stroke="none" 
	d="
M1.000000,153.000000 
	C1.000000,102.375648 1.000000,51.751305 1.000000,1.000000 
	C124.687531,1.000000 248.375107,1.000000 372.833374,1.329156 
	C372.782562,2.103341 372.010071,2.743246 371.132172,2.963926 
	C359.518433,5.883381 349.420898,11.720968 340.807556,19.813313 
	C325.559418,34.139114 317.705505,51.869141 317.446686,72.977753 
	C304.861053,72.429695 293.453186,75.265221 282.440186,80.161568 
	C278.637207,81.852379 276.348969,84.719322 276.412598,88.673058 
	C276.473328,92.444305 278.767548,95.122192 282.389557,96.830780 
	C293.663940,102.149162 305.446381,104.701530 317.947327,104.510895 
	C317.953430,119.966530 317.919922,134.957932 317.426208,149.967316 
	C310.967133,150.061279 304.968231,150.137238 298.505432,150.161316 
	C273.683197,150.114548 249.324875,150.119675 224.502289,150.076019 
	C155.812714,150.018127 87.587379,150.007690 19.362049,150.002304 
	C13.080728,150.001816 6.660514,149.183456 1.000000,153.000000 
z"/>
<path fill="#000000" opacity="1.000000" stroke="none" 
	d="
M513.000000,218.000000 
	C513.000000,316.270050 513.000000,414.540131 513.000000,513.000000 
	C386.644714,513.000000 260.289337,513.000000 133.350586,512.645386 
	C143.042725,506.578583 150.663376,497.804138 158.819473,489.656982 
	C186.847595,461.659393 214.678558,433.460480 243.021744,405.785919 
	C248.159424,400.769409 255.159897,397.479919 261.675934,394.121826 
	C265.759766,392.017151 270.545166,391.273834 275.480164,389.858368 
	C295.625397,389.475677 315.306213,389.154358 335.393921,388.915833 
	C337.576508,388.667053 339.352264,388.335449 341.337006,387.979462 
	C341.545990,387.955078 341.944946,387.821381 342.388123,387.904785 
	C349.724731,386.924225 356.739655,386.358154 363.490814,384.711090 
	C394.656342,377.107544 422.596497,362.915375 446.633301,341.681000 
	C463.900330,326.427124 478.401550,308.723175 489.306396,288.262787 
	C500.738159,266.813690 508.493286,244.205200 511.079773,219.931091 
	C511.154755,219.227173 512.335083,218.641037 513.000000,218.000000 
z"/>
<path fill="#FFE8C2" opacity="1.000000" stroke="none" 
	d="
M341.944946,387.821381 
	C341.944946,387.821381 341.545990,387.955078 340.930664,387.961700 
	C338.539246,388.256531 336.763153,388.544769 334.987061,388.833008 
	C315.306213,389.154358 295.625397,389.475677 275.142334,389.624817 
	C263.534943,389.393311 252.729294,389.241821 241.924667,389.295532 
	C224.161270,389.383789 208.838043,395.452057 196.159317,408.080536 
	C165.171982,438.945068 134.117905,469.742645 103.124855,500.601471 
	C101.873306,501.847626 100.969467,503.442993 99.590820,505.028931 
	C96.665962,506.830078 93.994080,508.393005 91.471581,510.168182 
	C90.476326,510.868591 89.813965,512.041992 89.000008,513.000000 
	C81.979050,513.000000 74.958107,513.000000 67.468582,513.000000 
	C66.138687,512.016052 65.436974,510.790955 64.385193,510.094757 
	C61.585480,508.241486 58.634979,506.616028 55.217659,504.587219 
	C56.784504,502.896027 57.831577,501.688232 58.958694,500.560455 
	C113.463844,446.021851 167.942734,391.456940 222.511734,336.982239 
	C235.306885,324.209198 248.415833,311.750580 261.359375,299.125763 
	C262.539154,297.975037 263.564789,296.666290 264.294312,295.193848 
	C263.926636,294.956726 263.947083,295.076080 264.202087,295.369934 
	C264.946045,295.129669 265.434967,294.595581 266.228699,293.909668 
	C270.218994,290.450592 274.084991,287.321472 277.557281,283.803772 
	C289.528870,271.675598 301.376526,259.424835 313.227539,247.178314 
	C314.345703,246.022827 315.155518,244.568909 316.525665,243.219177 
	C317.324066,244.640640 317.995544,246.088776 318.034363,247.553665 
	C318.174957,252.864380 317.955109,258.185852 318.139069,263.493988 
	C318.729095,280.517731 331.857880,293.226410 349.414429,293.605774 
	C368.955322,291.672546 379.940308,279.644104 379.972687,260.583679 
	C380.000458,244.250626 380.092468,227.916397 379.944366,211.584610 
	C379.656372,179.825150 355.285858,153.550522 323.962280,150.519791 
	C331.682220,147.623688 339.078033,144.543594 343.126923,137.331818 
	C346.148102,131.950577 348.034729,125.932327 350.808441,119.282219 
	C351.368256,119.282219 353.163452,119.282249 354.958649,119.282211 
	C375.762451,119.281746 396.566498,119.333267 417.369843,119.236717 
	C421.505005,119.217529 425.680634,118.902107 429.762756,118.252838 
	C439.896423,116.641083 447.589111,110.533722 455.026215,104.349304 
	C459.689789,113.918983 464.879852,122.894653 468.843933,132.382553 
	C483.860535,168.324509 484.341675,205.515366 476.373871,242.960358 
	C467.422729,285.026398 448.119293,321.574493 415.843933,350.668701 
	C403.656189,361.655212 390.311951,371.038086 374.993530,377.018829 
	C364.214569,381.227295 352.977478,384.262390 341.944946,387.821381 
z"/>
<path fill="#FF7A3C" opacity="1.000000" stroke="none" 
	d="
M454.989746,103.990494 
	C447.589111,110.533722 439.896423,116.641083 429.762756,118.252838 
	C425.680634,118.902107 421.505005,119.217529 417.369843,119.236717 
	C396.566498,119.333267 375.762451,119.281746 354.958649,119.282211 
	C353.163452,119.282249 351.368256,119.282219 350.808441,119.282219 
	C348.034729,125.932327 346.148102,131.950577 343.126923,137.331818 
	C339.078033,144.543594 331.682220,147.623688 323.606445,150.605255 
	C321.274658,150.591812 319.580536,150.270569 317.886414,149.949326 
	C317.919922,134.957932 317.953430,119.966530 317.995972,104.042862 
	C317.970703,93.060349 317.936340,83.010086 317.902008,72.959831 
	C317.705505,51.869141 325.559418,34.139114 340.807556,19.813313 
	C349.420898,11.720968 359.518433,5.883381 371.132172,2.963926 
	C372.010071,2.743246 372.782562,2.103341 373.302032,1.329156 
	C381.020905,1.000000 389.041809,1.000000 397.576599,1.354729 
	C402.645691,9.977602 407.218964,18.235865 411.752655,26.515812 
	C423.538025,48.039886 435.251221,69.603813 447.128662,91.076897 
	C449.420013,95.219337 452.327606,99.020889 454.958191,103.232491 
	C454.973602,103.653694 454.981659,103.822098 454.989746,103.990494 
M379.972900,72.589958 
	C379.390656,65.339340 375.558228,60.485619 368.743439,58.280712 
	C362.826782,56.366398 355.886108,58.822044 352.279724,63.778446 
	C348.409271,69.097725 347.863556,74.768517 351.060242,80.615860 
	C354.181427,86.325165 360.853607,89.502785 367.013306,88.321411 
	C374.547363,86.876427 378.918365,81.853271 379.972900,72.589958 
z"/>
<path fill="#FFD185" opacity="1.000000" stroke="none" 
	d="
M455.026215,104.349304 
	C454.981659,103.822098 454.973602,103.653694 455.218903,103.020233 
	C464.826202,90.837471 467.773315,77.559319 465.480347,62.913589 
	C466.544708,62.948185 467.254852,62.987823 468.080566,63.368134 
	C475.610046,77.108521 483.327301,90.351151 490.367340,103.944496 
	C501.131653,124.728851 508.649841,146.615799 511.080139,170.065186 
	C511.153076,170.768890 512.335083,171.357651 513.000000,172.000000 
	C513.000000,187.020889 513.000000,202.041794 513.000000,217.531342 
	C512.335083,218.641037 511.154755,219.227173 511.079773,219.931091 
	C508.493286,244.205200 500.738159,266.813690 489.306396,288.262787 
	C478.401550,308.723175 463.900330,326.427124 446.633301,341.681000 
	C422.596497,362.915375 394.656342,377.107544 363.490814,384.711090 
	C356.739655,386.358154 349.724731,386.924225 342.388123,387.904785 
	C352.977478,384.262390 364.214569,381.227295 374.993530,377.018829 
	C390.311951,371.038086 403.656189,361.655212 415.843933,350.668701 
	C448.119293,321.574493 467.422729,285.026398 476.373871,242.960358 
	C484.341675,205.515366 483.860535,168.324509 468.843933,132.382553 
	C464.879852,122.894653 459.689789,113.918983 455.026215,104.349304 
z"/>
<path fill="#B6502F" opacity="1.000000" stroke="none" 
	d="
M1.000000,153.454102 
	C6.660514,149.183456 13.080728,150.001816 19.362049,150.002304 
	C87.587379,150.007690 155.812714,150.018127 224.527435,150.492050 
	C226.689423,160.939941 228.362015,170.922989 229.567596,180.970413 
	C172.779221,181.076874 116.457832,181.109360 60.136539,181.198868 
	C58.058025,181.202164 55.980400,181.762344 53.902359,182.063019 
	C47.082348,182.042435 40.262321,182.025620 33.442329,182.000458 
	C19.793106,181.950104 9.299182,176.551224 2.968829,164.054764 
	C2.691847,163.507980 2.119391,163.110870 1.342286,162.822021 
	C1.000000,159.969406 1.000000,156.938812 1.000000,153.454102 
z"/>
<path fill="#6A6A6A" opacity="1.000000" stroke="none" 
	d="
M99.903625,504.875671 
	C100.969467,503.442993 101.873306,501.847626 103.124855,500.601471 
	C134.117905,469.742645 165.171982,438.945068 196.159317,408.080536 
	C208.838043,395.452057 224.161270,389.383789 241.924667,389.295532 
	C252.729294,389.241821 263.534943,389.393311 274.677979,389.686157 
	C270.545166,391.273834 265.759766,392.017151 261.675934,394.121826 
	C255.159897,397.479919 248.159424,400.769409 243.021744,405.785919 
	C214.678558,433.460480 186.847595,461.659393 158.819473,489.656982 
	C150.663376,497.804138 143.042725,506.578583 132.883606,512.645386 
	C125.645744,513.000000 118.291496,513.000000 110.585098,512.645752 
	C106.789848,509.819550 103.346741,507.347595 99.903625,504.875671 
z"/>
<path fill="#000000" opacity="1.000000" stroke="none" 
	d="
M513.000000,171.531342 
	C512.335083,171.357651 511.153076,170.768890 511.080139,170.065186 
	C508.649841,146.615799 501.131653,124.728851 490.367340,103.944496 
	C483.327301,90.351151 475.610046,77.108521 468.550476,63.357388 
	C471.558502,63.003693 474.217804,62.886806 476.864746,63.018635 
	C489.473053,63.646568 499.015015,58.699570 505.770081,47.923866 
	C508.294891,43.896336 509.980957,40.006374 507.662292,35.584072 
	C505.418671,31.304794 500.998322,31.148197 496.888733,31.052099 
	C489.263824,30.873798 481.632904,30.952818 474.175049,30.615864 
	C488.047058,25.696358 495.013245,13.437811 491.000000,1.000000 
	C498.316681,1.000000 505.633331,1.000000 513.000000,1.000000 
	C513.000000,57.687553 513.000000,114.375114 513.000000,171.531342 
z"/>
<path fill="#FF5A35" opacity="1.000000" stroke="none" 
	d="
M465.126190,62.918625 
	C467.773315,77.559319 464.826202,90.837471 455.211609,102.767441 
	C452.327606,99.020889 449.420013,95.219337 447.128662,91.076897 
	C435.251221,69.603813 423.538025,48.039886 411.752655,26.515812 
	C407.218964,18.235865 402.645691,9.977602 398.045227,1.354729 
	C409.687561,1.000000 421.375122,1.000000 433.508545,1.376009 
	C439.368805,11.893249 444.783264,22.034479 450.307190,32.483704 
	C455.319855,42.834007 460.223022,52.876316 465.126190,62.918625 
z"/>
<path fill="#B6502F" opacity="1.000000" stroke="none" 
	d="
M450.197693,32.175713 
	C444.783264,22.034479 439.368805,11.893249 433.977173,1.376009 
	C452.687561,1.000000 471.375122,1.000000 490.531342,1.000000 
	C495.013245,13.437811 488.047058,25.696358 473.747620,30.644169 
	C465.498962,31.379438 457.848328,31.777575 450.197693,32.175713 
z"/>
<path fill="#000000" opacity="1.000000" stroke="none" 
	d="
M99.590828,505.028931 
	C103.346741,507.347595 106.789848,509.819550 110.116486,512.645752 
	C103.312355,513.000000 96.624710,513.000000 89.468536,513.000000 
	C89.813965,512.041992 90.476326,510.868591 91.471581,510.168182 
	C93.994080,508.393005 96.665962,506.830078 99.590828,505.028931 
z"/>
<path fill="#FFD185" opacity="1.000000" stroke="none" 
	d="
M316.108459,243.253540 
	C315.155518,244.568909 314.345703,246.022827 313.227539,247.178314 
	C301.376526,259.424835 289.528870,271.675598 277.557281,283.803772 
	C274.084991,287.321472 270.218994,290.450592 265.903839,293.884613 
	C264.831818,294.366272 264.389465,294.721191 263.947083,295.076080 
	C263.947083,295.076080 263.926636,294.956726 263.979340,294.928894 
	C256.896790,294.935486 249.574158,295.961761 242.691071,294.661407 
	C237.968063,293.769165 233.286011,290.260254 229.582977,286.840881 
	C220.296600,278.265869 211.803955,268.834442 202.571014,260.197571 
	C191.667328,249.997757 178.721069,244.092377 163.528885,244.016083 
	C148.881927,243.942535 134.228897,244.243469 119.588867,243.916809 
	C109.503510,243.691788 99.852486,241.579926 92.839516,233.314224 
	C88.104866,227.733856 85.131020,221.395020 85.271324,213.215530 
	C87.689964,212.341476 89.830795,212.047379 91.971977,212.044739 
	C144.134171,211.980469 196.296371,211.947220 248.725037,212.073883 
	C267.074829,231.859131 289.535126,242.006805 316.108459,243.253540 
z"/>
<path fill="#FEE7C1" opacity="1.000000" stroke="none" 
	d="
M248.458588,211.908401 
	C196.296371,211.947220 144.134171,211.980469 91.971977,212.044739 
	C89.830795,212.047379 87.689964,212.341476 85.244415,212.792267 
	C74.301071,211.664505 64.458786,208.418564 59.060768,198.312851 
	C56.550663,193.613632 55.630634,188.065063 53.946091,182.482269 
	C55.980400,181.762344 58.058025,181.202164 60.136539,181.198868 
	C116.457832,181.109360 172.779221,181.076874 229.840042,181.196411 
	C234.773026,192.575119 240.928986,202.643707 248.458588,211.908401 
z"/>
<path fill="#913122" opacity="1.000000" stroke="none" 
	d="
M248.725037,212.073883 
	C240.928986,202.643707 234.773026,192.575119 230.307068,181.132050 
	C228.362015,170.922989 226.689423,160.939941 224.991699,150.540863 
	C249.324875,150.119675 273.683197,150.114548 298.615234,150.493835 
	C300.361969,151.382828 301.492950,152.047638 302.714233,152.368500 
	C332.498474,160.193542 349.639130,187.031952 349.106598,215.065918 
	C348.609924,241.210358 349.014496,267.371918 349.022339,293.525940 
	C331.857880,293.226410 318.729095,280.517731 318.139069,263.493988 
	C317.955109,258.185852 318.174957,252.864380 318.034363,247.553665 
	C317.995544,246.088776 317.324066,244.640640 316.525665,243.219177 
	C289.535126,242.006805 267.074829,231.859131 248.725037,212.073883 
z"/>
<path fill="#80231D" opacity="1.000000" stroke="none" 
	d="
M349.414429,293.605774 
	C349.014496,267.371918 348.609924,241.210358 349.106598,215.065918 
	C349.639130,187.031952 332.498474,160.193542 302.714233,152.368500 
	C301.492950,152.047638 300.361969,151.382828 299.079132,150.545731 
	C304.968231,150.137238 310.967133,150.061279 317.426208,149.967316 
	C319.580536,150.270569 321.274658,150.591812 323.324585,150.827576 
	C355.285858,153.550522 379.656372,179.825150 379.944366,211.584610 
	C380.092468,227.916397 380.000458,244.250626 379.972687,260.583679 
	C379.940308,279.644104 368.955322,291.672546 349.414429,293.605774 
z"/>
<path fill="#FFD185" opacity="1.000000" stroke="none" 
	d="
M317.446686,72.977753 
	C317.936340,83.010086 317.970703,93.060349 317.956390,103.578629 
	C305.446381,104.701530 293.663940,102.149162 282.389557,96.830780 
	C278.767548,95.122192 276.473328,92.444305 276.412598,88.673058 
	C276.348969,84.719322 278.637207,81.852379 282.440186,80.161568 
	C293.453186,75.265221 304.861053,72.429695 317.446686,72.977753 
z"/>
<path fill="#FFD185" opacity="1.000000" stroke="none" 
	d="
M335.393921,388.915833 
	C336.763153,388.544769 338.539246,388.256531 340.721680,387.986084 
	C339.352264,388.335449 337.576508,388.667053 335.393921,388.915833 
z"/>
<path fill="#000000" opacity="1.000000" stroke="none" 
	d="
M264.202087,295.369934 
	C264.389465,294.721191 264.831818,294.366272 265.599060,294.036438 
	C265.434967,294.595581 264.946045,295.129669 264.202087,295.369934 
z"/>
<path fill="#393635" opacity="1.000000" stroke="none" 
	d="
M379.973785,73.008072 
	C378.918365,81.853271 374.547363,86.876427 367.013306,88.321411 
	C360.853607,89.502785 354.181427,86.325165 351.060242,80.615860 
	C347.863556,74.768517 348.409271,69.097725 352.279724,63.778446 
	C355.886108,58.822044 362.826782,56.366398 368.743439,58.280712 
	C375.558228,60.485619 379.390656,65.339340 379.973785,73.008072 
z"/>
<path fill="#504F4F" opacity="1.000000" stroke="none" 
	d="
M450.307190,32.483704 
	C457.848328,31.777575 465.498962,31.379438 473.577026,30.952995 
	C481.632904,30.952818 489.263824,30.873798 496.888733,31.052099 
	C500.998322,31.148197 505.418671,31.304794 507.662292,35.584072 
	C509.980957,40.006374 508.294891,43.896336 505.770081,47.923866 
	C499.015015,58.699570 489.473053,63.646568 476.864746,63.018635 
	C474.217804,62.886806 471.558502,63.003693 468.434937,63.016716 
	C467.254852,62.987823 466.544708,62.948185 465.480347,62.913589 
	C460.223022,52.876316 455.319855,42.834007 450.307190,32.483704 
z"/>
</svg>