<?xml version="1.0" standalone="no"?>
<!DOCTYPE svg PUBLIC "-//W3C//DTD SVG 20010904//EN"
 "http://www.w3.org/TR/2001/REC-SVG-20010904/DTD/svg10.dtd">
<svg version="1.0" xmlns="http://www.w3.org/2000/svg"
 width="299.000000pt" height="169.000000pt" viewBox="0 0 299.000000 169.000000"
 preserveAspectRatio="xMidYMid meet">

<g transform="translate(0.000000,169.000000) scale(0.100000,-0.100000)"
fill="#000000" stroke="none">
<path d="M427 1279 c-53 -12 -91 -33 -121 -69 -75 -89 22 -200 174 -200 82 0
131 14 170 47 36 30 35 44 -4 54 -24 7 -34 3 -58 -22 -23 -22 -39 -29 -69 -29
-104 0 -153 80 -88 141 50 46 140 38 185 -18 9 -11 17 -11 38 -2 30 14 32 23
11 73 -14 33 -18 36 -43 29 -30 -8 -37 -8 -107 -1 -27 3 -67 1 -88 -3z"/>
<path d="M843 1279 c-88 -16 -153 -73 -153 -136 0 -28 8 -44 38 -73 86 -86
279 -81 355 10 89 105 -63 230 -240 199z m113 -73 c57 -49 22 -146 -54 -146
-24 0 -42 8 -63 29 -36 36 -37 70 -3 110 33 39 80 42 120 7z"/>
<path d="M1080 1265 c0 -11 6 -27 12 -33 7 -7 33 -59 58 -115 l46 -102 65 -3
c60 -3 66 -1 76 20 l10 23 7 -22 c7 -21 14 -23 70 -23 l63 0 28 63 c57 129 69
152 83 163 8 6 12 19 10 30 -3 17 -12 19 -82 19 -85 0 -98 -8 -77 -48 9 -17 9
-31 -2 -62 l-14 -40 -13 41 c-9 31 -9 46 -1 62 21 39 6 48 -77 47 -72 -1 -77
-2 -80 -24 -2 -13 4 -28 14 -35 14 -11 15 -17 4 -50 -6 -21 -14 -35 -18 -32
-13 14 -40 86 -32 86 15 0 12 50 -2 52 -7 1 -43 2 -80 3 -63 2 -68 0 -68 -20z"/>
<path d="M1620 1259 c0 -19 5 -29 15 -29 12 0 15 -16 15 -85 0 -69 -3 -85 -15
-85 -9 0 -15 -9 -15 -25 l0 -25 135 0 c145 0 194 11 214 48 14 26 14 69 1 77
-6 4 -8 21 -4 40 16 86 -24 107 -207 111 l-139 2 0 -29z m240 -44 c17 -20 4
-33 -35 -36 -56 -4 -65 0 -65 26 0 23 4 25 44 25 27 0 48 -6 56 -15z m16 -100
c19 -15 19 -15 -1 -30 -13 -10 -36 -15 -65 -13 -41 3 -45 6 -48 31 -3 26 -2
27 45 27 28 0 57 -6 69 -15z"/>
<path d="M2148 1280 c-172 -21 -222 -171 -82 -244 54 -28 170 -34 229 -12 63
24 105 71 105 116 0 96 -110 157 -252 140z m106 -75 c55 -51 16 -144 -62 -145
-71 0 -107 85 -61 144 28 35 85 36 123 1z"/>
<path d="M2590 1282 c-16 -6 -12 -32 5 -32 21 0 19 -7 -9 -40 l-23 -28 -22 28
c-26 36 -26 38 1 42 12 2 23 9 26 16 3 9 -24 12 -112 12 -64 0 -116 -4 -116
-9 0 -5 11 -16 24 -25 13 -8 45 -43 71 -76 39 -51 46 -66 43 -98 -2 -25 -8
-37 -18 -37 -8 0 -16 -8 -18 -17 -3 -16 7 -18 102 -18 100 0 106 1 106 20 0
14 -6 20 -17 18 -14 -2 -17 5 -18 37 0 32 9 54 45 107 26 39 52 67 63 68 9 0
17 6 17 14 0 11 -18 15 -70 18 -39 2 -75 2 -80 0z"/>
<path d="M1070 960 c0 -5 -7 -10 -16 -10 -13 0 -14 -3 -4 -15 7 -9 9 -26 5
-45 -5 -23 -3 -30 9 -30 10 0 16 9 16 23 0 13 7 32 15 43 13 18 14 17 15 -18
0 -20 -6 -39 -12 -41 -7 -3 -1 -6 15 -6 26 -1 27 1 27 44 0 38 -3 45 -20 45
-11 0 -20 5 -20 10 0 6 -7 10 -15 10 -8 0 -15 -4 -15 -10z"/>
<path d="M1190 960 c0 -5 -9 -10 -20 -10 -11 0 -20 -6 -20 -13 0 -23 13 -28
31 -11 20 18 39 11 39 -15 0 -21 -16 -37 -45 -44 -12 -3 -4 -5 17 -6 27 -1 40
4 48 18 15 30 13 71 -5 71 -8 0 -15 5 -15 10 0 6 -7 10 -15 10 -8 0 -15 -4
-15 -10z"/>
<path d="M1290 961 c0 -5 -8 -12 -17 -14 -17 -4 -17 -5 0 -6 21 -1 23 -21 2
-21 -8 0 -15 -6 -15 -14 0 -8 -3 -21 -6 -30 -4 -11 -1 -16 10 -16 9 0 16 8 16
19 0 11 5 23 11 27 9 5 10 -1 5 -20 -5 -21 -3 -26 12 -26 14 0 18 6 15 28 -4
34 7 53 35 55 25 2 29 12 7 21 -8 3 -15 1 -15 -4 0 -6 -7 -10 -16 -10 -8 0
-12 5 -9 10 3 6 -3 10 -14 10 -12 0 -21 -4 -21 -9z"/>
<path d="M1457 932 c-20 -21 -37 -41 -37 -45 0 -14 29 -6 39 11 9 14 10 13 11
-10 0 -20 5 -28 18 -28 12 0 17 8 17 30 0 19 -5 30 -14 30 -10 0 -7 8 9 25 40
42 -1 30 -43 -13z"/>
<path d="M1542 918 l3 -53 55 -1 c34 -1 40 0 18 3 -29 3 -38 9 -38 23 0 14 8
20 32 22 27 3 32 7 34 33 2 17 0 23 -3 15 -14 -34 -63 -42 -63 -10 0 14 -7 20
-21 20 -18 0 -20 -5 -17 -52z"/>
<path d="M1678 915 c-14 -51 -14 -55 2 -55 11 0 20 10 23 29 3 16 9 40 13 55
4 19 2 26 -8 26 -9 0 -20 -21 -30 -55z"/>
<path d="M1738 954 c-7 -34 15 -94 34 -94 19 0 18 2 -15 79 -12 28 -16 31 -19
15z"/>
<path d="M1885 960 c-4 -6 8 -10 29 -10 33 0 36 -2 36 -29 0 -30 -13 -46 -45
-54 -12 -3 -5 -5 16 -6 41 -1 60 16 63 54 0 13 7 27 14 30 7 3 10 10 6 16 -4
8 -9 7 -15 -2 -6 -10 -9 -11 -9 -1 0 15 -86 17 -95 2z"/>
<path d="M1370 920 c0 -5 14 -10 30 -10 17 0 30 5 30 10 0 6 -13 10 -30 10
-16 0 -30 -4 -30 -10z"/>
<path d="M1800 910 c0 -11 5 -20 10 -20 6 0 10 9 10 20 0 11 -4 20 -10 20 -5
0 -10 -9 -10 -20z"/>
<path d="M1830 910 c0 -11 5 -20 10 -20 6 0 10 9 10 20 0 11 -4 20 -10 20 -5
0 -10 -9 -10 -20z"/>
<path d="M1868 903 c-2 -23 -9 -29 -38 -34 -20 -4 -27 -7 -15 -9 54 -7 75 6
75 48 0 32 -18 27 -22 -5z"/>
<path d="M1334 904 c3 -9 6 -22 6 -30 0 -8 7 -14 16 -14 11 0 14 5 10 16 -3 9
-6 22 -6 30 0 8 -7 14 -16 14 -11 0 -14 -5 -10 -16z"/>
<path d="M276 804 c-12 -32 -6 -54 14 -54 19 0 20 -7 20 -115 0 -99 -2 -116
-18 -124 -11 -6 -17 -20 -16 -38 l1 -28 179 3 c145 3 187 7 219 21 74 33 98
82 68 141 -16 30 -16 39 -6 60 19 37 16 55 -13 89 -40 48 -101 61 -285 61
-134 0 -158 -2 -163 -16z m286 -64 c76 -22 43 -70 -47 -67 -48 2 -50 3 -53 34
-3 26 1 32 20 36 39 7 42 7 80 -3z m35 -136 c12 -3 24 -13 28 -22 10 -27 -24
-42 -97 -42 l-68 0 0 35 0 35 58 0 c31 0 67 -3 79 -6z"/>
<path d="M760 785 c0 -24 5 -35 15 -35 22 0 22 -228 0 -236 -9 -4 -15 -19 -15
-38 l0 -31 216 2 c119 1 218 4 221 6 2 3 10 27 18 53 7 27 16 57 20 67 6 13 0
20 -26 31 -33 14 -34 14 -79 -28 -51 -48 -102 -69 -152 -63 -32 3 -33 4 -36
56 l-3 53 53 -2 c110 -3 108 -4 108 36 l0 35 -77 -2 -78 -2 -3 31 -3 32 58 0
c63 -1 124 -19 153 -45 16 -14 24 -15 54 -5 l36 12 -47 54 -47 54 -193 0 -193
0 0 -35z"/>
<path d="M1230 785 c0 -24 5 -35 14 -35 18 0 22 -36 18 -152 -3 -70 -6 -88
-18 -88 -11 0 -14 -9 -12 -32 l3 -33 180 1 c162 1 184 3 221 22 69 35 94 99
58 151 -13 18 -14 28 -5 47 18 41 13 68 -21 100 -54 50 -75 54 -263 54 l-175
0 0 -35z m318 -59 c16 -16 16 -18 -7 -37 -19 -15 -36 -19 -75 -17 -46 3 -51 5
-53 28 -3 48 3 53 63 48 34 -3 62 -11 72 -22z m18 -130 c15 -12 17 -18 8 -33
-9 -14 -26 -19 -82 -21 -61 -2 -71 0 -74 15 -10 44 1 53 66 53 39 0 70 -6 82
-14z"/>
<path d="M1920 810 c-99 -17 -171 -69 -200 -144 -48 -127 166 -252 362 -211
164 34 242 146 177 251 -51 84 -197 128 -339 104z m123 -74 c45 -19 68 -48 73
-93 15 -126 -163 -176 -222 -62 -30 58 -12 112 50 150 37 23 56 24 99 5z"/>
<path d="M2270 785 c0 -24 5 -35 15 -35 13 0 15 -20 15 -121 0 -106 -2 -120
-16 -115 -12 5 -15 -1 -12 -31 l3 -37 121 -3 c115 -2 122 -1 127 18 9 35 -3
49 -40 49 l-34 0 3 48 3 47 100 5 c110 6 145 17 169 52 25 35 19 67 -17 103
-46 46 -89 55 -274 55 l-163 0 0 -35z m311 -55 l24 -20 -24 -20 c-19 -16 -36
-20 -75 -18 -45 3 -51 6 -54 26 -6 43 4 52 57 52 34 0 56 -6 72 -20z"/>
</g>
</svg>
