<?xml version="1.0" standalone="no"?>
<!DOCTYPE svg PUBLIC "-//W3C//DTD SVG 20010904//EN"
 "http://www.w3.org/TR/2001/REC-SVG-20010904/DTD/svg10.dtd">
<svg version="1.0" xmlns="http://www.w3.org/2000/svg"
 width="299.000000pt" height="169.000000pt" viewBox="0 0 299.000000 169.000000"
 preserveAspectRatio="xMidYMid meet">

<g transform="translate(0.000000,169.000000) scale(0.100000,-0.100000)"
fill="#000000" stroke="none">
<path d="M0 845 l0 -845 1495 0 1495 0 0 845 0 845 -1495 0 -1495 0 0 -845z
m580 432 c8 -1 27 2 42 6 25 7 29 4 43 -29 21 -50 19 -59 -11 -73 -21 -9 -29
-9 -38 2 -25 31 -62 47 -107 47 -38 0 -53 -6 -78 -29 -65 -61 -16 -141 88
-141 30 0 46 7 69 29 24 25 34 29 58 22 39 -10 40 -24 4 -54 -64 -55 -200 -64
-286 -21 -169 86 -58 267 151 246 28 -3 57 -5 65 -5z m415 -8 c57 -16 115 -77
115 -122 0 -76 -91 -137 -203 -137 -87 0 -136 16 -179 60 -48 47 -51 93 -12
140 59 69 159 90 279 59z m233 13 c14 -2 17 -52 2 -52 -8 0 19 -72 32 -86 4
-3 12 11 18 32 11 33 10 39 -4 50 -10 7 -16 22 -14 35 3 22 8 23 80 24 83 1
98 -8 77 -47 -8 -16 -8 -31 1 -62 l13 -41 14 40 c11 31 11 45 2 62 -21 40 -8
48 77 48 70 0 79 -2 82 -19 2 -11 -2 -24 -10 -30 -14 -11 -26 -34 -83 -163
l-28 -63 -63 0 c-56 0 -63 2 -70 23 l-7 22 -10 -23 c-10 -21 -16 -23 -76 -20
l-65 3 -46 102 c-25 56 -51 108 -58 115 -6 6 -12 22 -12 33 0 20 5 22 68 20
37 -1 73 -2 80 -3z m701 -18 c36 -21 45 -43 37 -89 -4 -19 -2 -36 4 -40 13 -8
13 -51 -1 -77 -20 -37 -69 -48 -214 -48 l-135 0 0 25 c0 16 6 25 15 25 12 0
15 16 15 85 0 69 -3 85 -15 85 -10 0 -15 10 -15 29 l0 29 139 -2 c113 -3 144
-7 170 -22z m374 -1 c92 -29 127 -129 66 -191 -45 -46 -104 -65 -191 -60 -149
7 -236 99 -176 187 31 47 78 72 146 81 63 8 84 5 155 -17z m437 1 c0 -8 -8
-14 -17 -14 -11 -1 -37 -29 -63 -68 -36 -53 -45 -75 -45 -107 1 -32 4 -39 18
-37 11 2 17 -4 17 -18 0 -19 -6 -20 -106 -20 -95 0 -105 2 -102 18 2 9 10 17
18 17 10 0 16 12 18 37 3 32 -4 47 -43 98 -26 33 -58 68 -71 76 -13 9 -24 20
-24 25 0 5 52 9 116 9 88 0 115 -3 112 -12 -3 -7 -14 -14 -26 -16 -27 -4 -27
-6 -1 -42 l22 -28 23 28 c28 33 30 40 9 40 -17 0 -21 26 -5 32 5 2 41 2 80 0
52 -3 70 -7 70 -18z m-1640 -304 c0 -5 9 -10 20 -10 17 0 20 -7 20 -45 0 -43
-1 -45 -27 -44 -16 0 -22 3 -15 6 6 2 12 21 12 41 -1 35 -2 36 -15 18 -8 -11
-15 -30 -15 -43 0 -14 -6 -23 -16 -23 -12 0 -14 7 -9 30 4 19 2 36 -5 45 -10
12 -9 15 4 15 9 0 16 5 16 10 0 6 7 10 15 10 8 0 15 -4 15 -10z m120 0 c0 -5
7 -10 15 -10 18 0 20 -41 5 -71 -8 -14 -21 -19 -48 -18 -21 1 -29 3 -17 6 29
7 45 23 45 44 0 26 -19 33 -39 15 -18 -17 -31 -12 -31 11 0 7 9 13 20 13 11 0
20 5 20 10 0 6 7 10 15 10 8 0 15 -4 15 -10z m105 0 c-3 -5 1 -10 9 -10 9 0
16 4 16 10 0 5 7 7 15 4 22 -9 18 -19 -7 -21 -28 -2 -39 -21 -35 -55 3 -22 -1
-28 -15 -28 -15 0 -17 5 -12 26 5 19 4 25 -5 20 -6 -4 -11 -16 -11 -27 0 -11
-7 -19 -16 -19 -11 0 -14 5 -10 16 3 9 6 22 6 30 0 8 7 14 15 14 21 0 19 20
-2 21 -17 1 -17 2 0 6 9 2 17 9 17 14 0 5 9 9 21 9 11 0 17 -4 14 -10z m175
-15 c-16 -17 -19 -25 -9 -25 9 0 14 -11 14 -30 0 -22 -5 -30 -17 -30 -13 0
-18 8 -18 28 -1 23 -2 24 -11 10 -10 -17 -39 -25 -39 -11 0 14 74 83 89 83 10
0 8 -7 -9 -25z m80 5 c0 -32 49 -24 63 10 3 8 5 2 3 -15 -2 -26 -7 -30 -34
-33 -24 -2 -32 -8 -32 -22 0 -14 9 -20 38 -23 22 -3 16 -4 -18 -3 l-55 1 -3
53 c-3 47 -1 52 17 52 14 0 21 -6 21 -20z m136 -6 c-4 -15 -10 -39 -13 -55 -3
-19 -12 -29 -23 -29 -16 0 -16 4 -2 55 10 34 21 55 30 55 10 0 12 -7 8 -26z
m65 -61 c7 -19 5 -23 -9 -23 -19 0 -41 60 -34 94 4 20 12 7 43 -71z m199 75
c0 -10 3 -9 9 1 6 9 11 10 15 2 4 -6 1 -13 -6 -16 -7 -3 -14 -17 -14 -30 -3
-38 -22 -55 -63 -54 -21 1 -28 3 -16 6 32 8 45 24 45 54 0 27 -3 29 -36 29
-21 0 -33 4 -29 10 9 15 95 13 95 -2z m-550 -38 c0 -5 -13 -10 -30 -10 -16 0
-30 5 -30 10 0 6 14 10 30 10 17 0 30 -4 30 -10z m390 -10 c0 -11 -4 -20 -10
-20 -5 0 -10 9 -10 20 0 11 5 20 10 20 6 0 10 -9 10 -20z m30 0 c0 -11 -4 -20
-10 -20 -5 0 -10 9 -10 20 0 11 5 20 10 20 6 0 10 -9 10 -20z m40 -2 c0 -42
-21 -55 -75 -48 -12 2 -5 5 15 9 29 5 36 11 38 34 4 32 22 37 22 5z m-530 -2
c0 -8 3 -21 6 -30 4 -11 1 -16 -10 -16 -9 0 -16 6 -16 14 0 8 -3 21 -6 30 -4
11 -1 16 10 16 9 0 16 -6 16 -14z m-713 -101 c33 -10 61 -26 77 -46 29 -34 32
-52 13 -89 -10 -21 -10 -30 6 -60 30 -59 6 -108 -68 -141 -32 -14 -74 -18
-219 -21 l-179 -3 -1 28 c-1 18 5 32 16 38 16 8 18 25 18 124 0 108 -1 115
-20 115 -20 0 -26 22 -14 54 9 23 296 23 371 1z m546 -39 l47 -54 -36 -12
c-30 -10 -38 -9 -54 5 -29 26 -90 44 -153 45 l-58 0 3 -32 3 -31 78 2 77 2 0
-35 c0 -40 2 -39 -108 -36 l-53 2 3 -53 c3 -52 4 -53 36 -56 50 -6 101 15 152
63 45 42 46 42 79 28 26 -11 32 -18 26 -31 -4 -10 -13 -40 -20 -67 -8 -26 -16
-50 -18 -53 -3 -2 -102 -5 -221 -6 l-216 -2 0 31 c0 19 6 34 15 38 22 8 22
236 0 236 -10 0 -15 11 -15 35 l0 35 193 0 193 0 47 -54z m414 42 c43 -18 93
-69 93 -94 0 -13 -5 -34 -11 -48 -9 -19 -8 -29 5 -47 36 -52 11 -116 -58 -151
-37 -19 -59 -21 -221 -22 l-180 -1 -3 33 c-2 23 1 32 12 32 12 0 15 18 18 88
4 116 0 152 -18 152 -9 0 -14 11 -14 35 l0 35 175 0 c112 0 184 -4 202 -12z
m491 -3 c73 -17 134 -55 161 -99 65 -105 -13 -217 -177 -251 -196 -41 -410 84
-362 211 19 50 57 90 107 114 84 39 174 48 271 25z m537 4 c48 -13 105 -68
105 -101 0 -31 -26 -66 -59 -81 -14 -6 -71 -14 -126 -17 l-100 -5 -3 -47 -3
-48 34 0 c37 0 49 -14 40 -49 -5 -19 -12 -20 -127 -18 l-121 3 -3 37 c-3 30 0
36 12 31 14 -5 16 9 16 115 0 101 -2 121 -15 121 -10 0 -15 11 -15 35 l0 35
163 0 c89 0 180 -5 202 -11z"/>
<path d="M836 1199 c-34 -40 -33 -74 3 -110 58 -58 145 -23 145 58 0 77 -98
112 -148 52z"/>
<path d="M1760 1205 c0 -26 9 -30 65 -26 69 6 50 51 -21 51 -40 0 -44 -2 -44
-25z"/>
<path d="M1762 1103 c3 -25 7 -28 48 -31 29 -2 52 3 65 13 20 15 20 15 1 30
-12 9 -41 15 -69 15 -47 0 -48 -1 -45 -27z"/>
<path d="M2131 1204 c-46 -59 -10 -144 61 -144 78 1 117 94 62 145 -38 35 -95
34 -123 -1z"/>
<path d="M482 743 c-19 -4 -23 -10 -20 -36 3 -31 5 -32 53 -34 90 -3 123 45
47 67 -38 10 -41 10 -80 3z"/>
<path d="M460 575 l0 -35 68 0 c73 0 107 15 97 42 -8 21 -36 28 -107 28 l-58
0 0 -35z"/>
<path d="M1416 739 c-3 -8 -4 -25 -3 -39 2 -23 7 -25 53 -28 39 -2 56 2 75 17
23 19 23 21 7 37 -22 23 -126 33 -132 13z"/>
<path d="M1418 593 c-11 -47 0 -54 74 -51 56 2 73 7 82 21 18 29 -17 47 -90
47 -50 0 -62 -3 -66 -17z"/>
<path d="M1944 731 c-62 -38 -80 -92 -50 -150 59 -114 237 -64 222 62 -5 45
-28 74 -73 93 -43 19 -62 18 -99 -5z"/>
<path d="M2454 736 c-3 -8 -4 -25 -2 -38 3 -20 9 -23 54 -26 39 -2 56 2 75 18
l24 20 -24 20 c-29 25 -118 29 -127 6z"/>
</g>
</svg>
